<svg xmlns="http://www.w3.org/2000/svg" viewBox="0 0 48 48"><defs><style>.cls-1{fill:#dad7e5;}.cls-2{fill:#db5669;}.cls-3{fill:#f26674;}.cls-4{fill:#c4455e;}.cls-5{fill:#7c7d7d;}.cls-6{fill:#919191;}</style></defs><title>Container</title><g id="Container"><path class="cls-1" d="M42,22c-.21,0,1,.3-18-5L6.27,22A1,1,0,0,1,5.73,20l18-5c.4-.12-1-.43,18.54,5A1,1,0,0,1,42,22Z"/><path class="cls-1" d="M24,17a4,4,0,0,1-4-4,1,1,0,0,1,2,0,2,2,0,1,0,2.76-1.85A2.91,2.91,0,0,1,23,8.42V5a1,1,0,0,1,2,0c0,3.69-.14,4,.53,4.3A4,4,0,0,1,24,17Z"/><rect class="cls-2" x="1" y="25" width="46" height="22"/><path class="cls-3" d="M47,25V45H6a3,3,0,0,1-3-3V25Z"/><path class="cls-4" d="M21,43V29a1,1,0,0,1,2,0V43A1,1,0,0,1,21,43Z"/><path class="cls-4" d="M25,43V29a1,1,0,0,1,2,0V43A1,1,0,0,1,25,43Z"/><path class="cls-4" d="M29,43V29a1,1,0,0,1,2,0V43A1,1,0,0,1,29,43Z"/><path class="cls-4" d="M17,43V29a1,1,0,0,1,2,0V43A1,1,0,0,1,17,43Z"/><path class="cls-4" d="M5,43V29a1,1,0,0,1,2,0V43A1,1,0,0,1,5,43Z"/><path class="cls-4" d="M9,43V29a1,1,0,0,1,2,0V43A1,1,0,0,1,9,43Z"/><path class="cls-4" d="M13,43V29a1,1,0,0,1,2,0V43A1,1,0,0,1,13,43Z"/><path class="cls-4" d="M33,43V29a1,1,0,0,1,2,0V43A1,1,0,0,1,33,43Z"/><path class="cls-4" d="M37,43V29a1,1,0,0,1,2,0V43A1,1,0,0,1,37,43Z"/><path class="cls-4" d="M41,43V29a1,1,0,0,1,2,0V43A1,1,0,0,1,41,43Z"/><path class="cls-5" d="M8,23v2H4c0-1.62-.3-3.15,1.18-3.82A2,2,0,0,1,8,23Z"/><path class="cls-6" d="M8,23v1H7a2,2,0,0,1-1.82-2.82A2,2,0,0,1,8,23Z"/><path class="cls-5" d="M40,25h4V23a2,2,0,0,0-4,0Z"/><path class="cls-5" d="M29,1V3a2,2,0,0,1-2,2H21a2,2,0,0,1-2-2V1Z"/><path class="cls-6" d="M29,1V3H23a2,2,0,0,1-2-2Z"/><path class="cls-6" d="M44,23v1H43a2,2,0,0,1-1.82-2.82A2,2,0,0,1,44,23Z"/></g></svg>