<?xml version="1.0" encoding="UTF-8" standalone="no"?>
<!-- Created with Inkscape (http://www.inkscape.org/) -->

<svg
   width="1920"
   height="1080"
   viewBox="0 0 507.99999 285.75"
   version="1.1"
   id="svg1"
   xml:space="preserve"
   xmlns:xlink="http://www.w3.org/1999/xlink"
   xmlns="http://www.w3.org/2000/svg"
   xmlns:svg="http://www.w3.org/2000/svg"><defs
     id="defs1"><style
       type="text/css"
       id="style1">
   <![CDATA[
    .fil0 {fill:none}
    .fil7 {fill:#1DE9B6}
    .fil11 {fill:#232430}
    .fil9 {fill:#2F303D}
    .fil3 {fill:#424242}
    .fil8 {fill:#434452}
    .fil5 {fill:#66BEE3}
    .fil4 {fill:#6BC4EA}
    .fil2 {fill:#BDBDBD}
    .fil1 {fill:#C1C1C1}
    .fil6 {fill:#D6D6D6}
    .fil10 {fill:#FBC02D}
   ]]>
  </style><style
       id="style1-5">
      .cls-1 {
        fill: #1d63ed;
        stroke-width: 0px;
      }
    </style><linearGradient
       id="linearGradient4671"><stop
         style="stop-color:#ffd43b;stop-opacity:1;"
         offset="0"
         id="stop4673" /><stop
         style="stop-color:#ffe873;stop-opacity:1"
         offset="1"
         id="stop4675" /></linearGradient><linearGradient
       id="linearGradient4689"><stop
         style="stop-color:#5a9fd4;stop-opacity:1;"
         offset="0"
         id="stop4691" /><stop
         style="stop-color:#306998;stop-opacity:1;"
         offset="1"
         id="stop4693" /></linearGradient><linearGradient
       xlink:href="#linearGradient4671"
       id="linearGradient1475"
       gradientUnits="userSpaceOnUse"
       gradientTransform="matrix(0.562541,0,0,0.567972,-9.399749,-5.305317)"
       x1="150.96111"
       y1="192.35176"
       x2="112.03144"
       y2="137.27299" /><linearGradient
       xlink:href="#linearGradient4689"
       id="linearGradient1478"
       gradientUnits="userSpaceOnUse"
       gradientTransform="matrix(0.562541,0,0,0.567972,-9.399749,-5.305317)"
       x1="26.648937"
       y1="20.603781"
       x2="135.66525"
       y2="114.39767" /><style
       id="style1-4">.cls-1{fill:#dad7e5;}.cls-2{fill:#db5669;}.cls-3{fill:#f26674;}.cls-4{fill:#c4455e;}.cls-5{fill:#7c7d7d;}.cls-6{fill:#919191;}</style></defs><g
     id="layer1"><path
       style="fill:none;fill-opacity:1;stroke:#000000;stroke-width:0.75;stroke-dasharray:none;stroke-opacity:1"
       d="M 254.11907,228.5066 77.202042,148.63796 Z"
       id="path68" /><path
       style="fill:none;fill-opacity:1;stroke:#000000;stroke-width:0.750001;stroke-dasharray:none;stroke-opacity:1"
       d="m 254.22799,149.88293 v 69.96548 z"
       id="path70" /><path
       style="fill:none;fill-opacity:1;stroke:#000000;stroke-width:0.75;stroke-dasharray:none;stroke-opacity:1"
       d="M 254.11907,228.5066 432.11865,148.63796 Z"
       id="path71" /><g
       style="clip-rule:evenodd;fill-rule:evenodd;image-rendering:optimizeQuality;shape-rendering:geometricPrecision;text-rendering:geometricPrecision"
       id="g1"
       transform="matrix(0.07461493,0,0,0.07461493,194.27478,132.93863)"><g
         id="Layer_x0020_1"
         transform="translate(0,278.59081)">
  <metadata
   id="CorelCorpID_0Corel-Layer" />
  <polygon
   class="fil0"
   points="1792,1792 255.999,1792 255.999,256.001 1792,256.001 "
   id="polygon1" />
  <rect
   class="fil0"
   width="2048"
   height="2048"
   id="rect1"
   x="0"
   y="0" />
  <rect
   class="fil0"
   x="255.99899"
   y="255.99899"
   width="1536"
   height="1536"
   id="rect2" />
  <rect
   class="fil0"
   width="2048"
   height="2048"
   id="rect3"
   x="0"
   y="0" />
  <g
   id="_520282616">
   <g
   id="g5">
    <rect
   id="_520298480"
   class="fil1"
   x="698.23798"
   y="1326.4301"
   width="201.37801"
   height="117.389" />
    <path
   id="_520285952"
   class="fil2"
   d="m 285.347,592.74 h 1027.16 c 16.1421,0 29.3469,13.8354 29.3469,30.7441 v 672.197 c 0,16.9075 -13.2071,30.7441 -29.3469,30.7441 H 285.347 c -16.1398,0 -29.3469,-13.8343 -29.3469,-30.7441 v -672.197 c 0,-16.9099 13.2047,-30.7441 29.3469,-30.7441 z" />
    <g
   id="g4">
     <path
   id="_520293152"
   class="fil3"
   d="m 285.347,592.74 h 1027.16 c 16.1421,0 29.3469,13.8354 29.3469,30.7441 v 584.155 c 0,16.9087 -13.2059,30.7441 -29.3469,30.7441 H 285.347 c -16.141,0 -29.3469,-13.8343 -29.3469,-30.7441 v -584.155 c 0,-16.9099 13.2047,-30.7441 29.3469,-30.7441 z" />
     <g
   id="g3">
      <polygon
   id="_520305992"
   class="fil4"
   points="868.269,629.423 894.76,629.423 436.976,1201.7 437.11,1201.7 1305.17,1201.7 1305.17,629.423 " />
      <polygon
   id="_520300496"
   class="fil5"
   points="461.248,1201.7 960.08,629.423 292.684,629.423 292.684,1201.7 " />
     </g>
    </g>
    <rect
   id="_520280840"
   class="fil6"
   x="666.86298"
   y="1442.64"
   width="264.12799"
   height="12.6179" />
    <rect
   id="_520298504"
   class="fil3"
   x="1242.66"
   y="1283.5"
   width="25.4965"
   height="6.7106299" />
    <rect
   id="_520307288"
   class="fil7"
   x="1291.23"
   y="1283.5"
   width="25.4965"
   height="6.7106299" />
   </g>
   
  </g><path
   class="cls-1"
   d="m 257.51887,198.29933 c -1.02941,-0.69294 -3.73453,-0.98888 -5.70118,-0.45918 -0.10605,-1.95888 -1.11603,-3.6096 -2.96386,-5.04988 l -0.68405,-0.45918 -0.45585,0.68849 c -0.89615,1.36033 -1.27371,3.17263 -1.1399,4.82001 0.10549,1.01498 0.45862,2.15599 1.1399,2.98385 -2.55965,1.48471 -4.91885,1.14768 -15.36731,1.14768 h -16.13187 c -0.0472,2.3592 0.33203,6.89771 3.21816,10.59226 0.3187,0.4081 0.6685,0.80288 1.04773,1.18321 2.34643,2.34977 5.89163,4.07267 11.19303,4.07767 8.08759,0.007 15.01695,-4.36417 19.23177,-14.93423 1.38698,0.0228 5.04822,0.24875 6.83997,-3.21371 0.0439,-0.0583 0.45585,-0.91836 0.45585,-0.91836 l -0.68295,-0.45918 z m -30.77626,-2.15765 h -4.53629 v 4.53629 h 4.53629 z m 5.86053,0 h -4.53629 v 4.53629 h 4.53629 z m 5.86053,0 h -4.53629 v 4.53629 h 4.53629 z m 5.86053,0 h -4.53629 v 4.53629 h 4.53629 z m -23.44212,0 h -4.53629 v 4.53629 h 4.53629 z m 5.86053,-5.7295 h -4.53629 v 4.53629 h 4.53629 z m 5.86053,0 h -4.53629 v 4.53629 h 4.53629 z m 5.86053,0 h -4.53629 v 4.53629 h 4.53629 z m 0,-5.73005 h -4.53629 v 4.53629 h 4.53629 z"
   id="path1"
   transform="matrix(13.402144,0,0,13.402144,-2380.1444,-1781.6626)"
   style="clip-rule:evenodd;fill-rule:evenodd;image-rendering:optimizeQuality;shape-rendering:geometricPrecision;text-rendering:geometricPrecision" />
 </g></g><g
       transform="matrix(0.02258496,0,0,-0.02258496,68.606112,75.914017)"
       id="g12"><rect
         style="fill:#ffffff;fill-opacity:1;stroke:none;stroke-width:71.8776;stroke-linecap:round;stroke-linejoin:round;stroke-miterlimit:4;stroke-dasharray:none;stroke-dashoffset:0;stroke-opacity:1"
         id="rect4167-6"
         width="3450.1267"
         height="3450.1267"
         x="-1264.829"
         y="-2275.8787"
         ry="575.01959"
         transform="scale(1,-1)" /><g
         id="g9"
         transform="translate(-16.259485,-12.247447)"><path
           id="path14"
           style="fill:#232e4a;fill-opacity:1;fill-rule:nonzero;stroke:none;stroke-width:1.98504"
           d="m -61.488255,1837.5422 c 0,-123.716 -97.056925,-224.0163 -216.780225,-224.0163 -119.69963,0 -216.76501,100.3003 -216.76501,224.0163 0,123.6921 97.06538,224.0241 216.76501,224.0241 119.7233,0 216.780225,-100.332 216.780225,-224.0241" /><path
           id="path16"
           style="fill:#232e4a;fill-opacity:1;fill-rule:nonzero;stroke:none;stroke-width:1.98504"
           d="m -61.488255,1074.1298 c 0,-123.71585 -97.056925,-224.01615 -216.780225,-224.01615 -119.69963,0 -216.76501,100.3003 -216.76501,224.01615 0,123.7159 97.06538,224.0143 216.76501,224.0143 119.7233,0 216.780225,-100.2984 216.780225,-224.0143" /><path
           id="path18"
           style="fill:#232e4a;fill-opacity:1;fill-rule:nonzero;stroke:none;stroke-width:1.98504"
           d="m -61.488255,310.72549 c 0,-123.70161 -97.056925,-224.023959 -216.780225,-224.023959 -119.69963,0 -216.76501,100.322349 -216.76501,224.023959 0,123.69207 97.06538,224.01423 216.76501,224.01423 119.7233,0 216.780225,-100.32216 216.780225,-224.01423" /><path
           id="path20"
           style="fill:#232e4a;fill-opacity:1;fill-rule:nonzero;stroke:none;stroke-width:1.98504"
           d="m 694.94649,1074.1298 c 0,-123.71585 -97.06623,-224.01615 -216.78108,-224.01615 -119.70723,0 -216.77177,100.3003 -216.77177,224.01615 0,123.7159 97.06454,224.0143 216.77177,224.0143 119.71485,0 216.78108,-100.2984 216.78108,-224.0143" /><path
           id="path22"
           style="fill:#232e4a;fill-opacity:1;fill-rule:nonzero;stroke:none;stroke-width:1.98504"
           d="m 694.94649,1837.5422 c 0,-123.716 -97.06623,-224.0163 -216.78108,-224.0163 -119.70723,0 -216.77177,100.3003 -216.77177,224.0163 0,123.6921 97.06454,224.0241 216.77177,224.0241 119.71485,0 216.78108,-100.332 216.78108,-224.0241" /><path
           id="path24"
           style="fill:#232e4a;fill-opacity:1;fill-rule:nonzero;stroke:none;stroke-width:1.98504"
           d="m 1451.372,1074.1298 c 0,-123.71585 -97.057,-224.01615 -216.7811,-224.01615 -119.7081,0 -216.7642,100.3003 -216.7642,224.01615 0,123.7159 97.0561,224.0143 216.7642,224.0143 119.7241,0 216.7811,-100.2984 216.7811,-224.0143" /><path
           id="path26"
           style="fill:#232e4a;fill-opacity:1;fill-rule:nonzero;stroke:none;stroke-width:1.98504"
           d="m 1451.372,1837.5422 c 0,-123.716 -97.057,-224.0163 -216.7811,-224.0163 -119.7081,0 -216.7642,100.3003 -216.7642,224.0163 0,123.6921 97.0561,224.0241 216.7642,224.0241 119.7241,0 216.7811,-100.332 216.7811,-224.0241" /><path
           id="path28"
           style="fill:#232e4a;fill-opacity:1;fill-rule:nonzero;stroke:none;stroke-width:1.98504"
           d="m 1451.372,310.72549 c 0,-123.70161 -97.057,-224.023959 -216.7811,-224.023959 -119.7081,0 -216.7642,100.322349 -216.7642,224.023959 0,123.69207 97.0561,224.01423 216.7642,224.01423 119.7241,0 216.7811,-100.32216 216.7811,-224.01423" /><path
           id="path30"
           style="fill:#232e4a;fill-opacity:1;fill-rule:nonzero;stroke:none;stroke-width:1.98504"
           d="m 694.94649,310.72549 c 0,-123.70161 -97.06623,-224.023959 -216.78108,-224.023959 -119.70723,0 -216.77177,100.322349 -216.77177,224.023959 0,123.69207 97.06454,224.01423 216.77177,224.01423 119.71485,0 216.78108,-100.32216 216.78108,-224.01423" /><path
           id="path32"
           style="fill:#232e4a;fill-opacity:1;fill-rule:nonzero;stroke:none;stroke-width:0.774945"
           d="m -231.00272,-264.7379 h -216.326 v -246.5838 h 216.326 c 74.23202,0 126.19218,39.45557 126.19218,122.74441 0,80.00071 -50.8985,123.83939 -126.19218,123.83939 z m 75.29368,-345.21335 151.6413805,-313.43249 H -132.37537 l -147.40246,303.56352 h -167.55089 v -303.56352 h -109.22086 v 767.14291 h 325.54686 c 129.37724,0 238.5980101,-71.23838 238.5980101,-229.04917 0,-122.74433 -62.5612901,-198.35576 -163.3043301,-224.66125" /><path
           id="path34"
           style="fill:#232e4a;fill-opacity:1;fill-rule:nonzero;stroke:none;stroke-width:0.774945"
           d="m 481.65611,-259.25813 c -129.37716,0 -200.4242,-108.49555 -200.4242,-280.55512 0,-172.06202 71.04704,-280.55437 200.4242,-280.55437 130.43891,0 201.48577,108.49235 201.48577,280.55437 0,172.05957 -71.04686,280.55512 -201.48577,280.55512 z m 0,-676.18266 c -191.93845,0 -313.8917,163.29581 -313.8917,395.62754 0,232.33249 121.95325,395.62279 313.8917,395.62279 193.00019,0 314.94557,-163.2903 314.94557,-395.62279 0,-232.33173 -121.94538,-395.62754 -314.94557,-395.62754" /><path
           id="path36"
           style="fill:#232e4a;fill-opacity:1;fill-rule:nonzero;stroke:none;stroke-width:0.774945"
           d="m 1234.8811,-935.44079 c -108.1746,0 -201.4858,48.21916 -264.05486,123.83702 l 79.54036,80.00697 c 49.8367,-55.89607 123.007,-90.9655 192.9924,-90.9655 103.9202,0 153.7648,37.26411 153.7648,111.78285 0,59.18023 -43.4668,88.77081 -167.5511,127.13369 -156.942,48.21325 -232.22777,88.76142 -232.22777,225.7509 0,132.60712 108.15897,213.7044 244.95237,213.7044 100.7429,0 177.0906,-38.35747 242.837,-104.11007 l -78.4633,-82.19539 c -46.6595,49.31845 -99.6812,73.42926 -172.8438,73.42926 -86.9721,0 -124.0843,-43.83868 -124.0843,-95.34539 0,-53.70147 33.9349,-80.0046 162.2503,-119.45408 146.3331,-46.03015 237.5441,-94.24957 237.5441,-231.23904 0,-138.0891 -84.8333,-232.33562 -274.6562,-232.33562" /></g></g><g
       id="g8"
       transform="matrix(0.70378794,0,0,0.70378794,211.05026,20.248624)"><rect
         style="fill:#ffffff;fill-opacity:1;stroke:none;stroke-width:2.30659;stroke-linecap:round;stroke-linejoin:round;stroke-miterlimit:4;stroke-dasharray:none;stroke-dashoffset:0;stroke-opacity:1"
         id="rect4167-6-1"
         width="110.71657"
         height="110.71657"
         x="5.668251"
         y="6.0597234"
         ry="18.452713" /><g
         id="g10"
         transform="matrix(0.82777147,0,0,0.82777147,10.39006,9.6065056)"><path
           style="fill:url(#linearGradient1478);fill-opacity:1"
           d="m 60.510156,6.3979729 c -4.583653,0.021298 -8.960939,0.4122177 -12.8125,1.09375 C 36.35144,9.4962267 34.291407,13.691825 34.291406,21.429223 v 10.21875 h 26.8125 v 3.40625 h -26.8125 -10.0625 c -7.792459,0 -14.6157592,4.683717 -16.7500002,13.59375 -2.46182,10.212966 -2.5710151,16.586023 0,27.25 1.9059283,7.937852 6.4575432,13.593748 14.2500002,13.59375 h 9.21875 v -12.25 c 0,-8.849902 7.657144,-16.656248 16.75,-16.65625 h 26.78125 c 7.454951,0 13.406253,-6.138164 13.40625,-13.625 v -25.53125 c 0,-7.266339 -6.12998,-12.7247775 -13.40625,-13.9375001 -4.605987,-0.7667253 -9.385097,-1.1150483 -13.96875,-1.09375 z m -14.5,8.2187501 c 2.769547,0 5.03125,2.298646 5.03125,5.125 -2e-6,2.816336 -2.261703,5.09375 -5.03125,5.09375 -2.779476,-1e-6 -5.03125,-2.277415 -5.03125,-5.09375 -1e-6,-2.826353 2.251774,-5.125 5.03125,-5.125 z"
           id="path1948" /><path
           style="fill:url(#linearGradient1475);fill-opacity:1"
           d="m 91.228906,35.054223 v 11.90625 c 0,9.230755 -7.825895,16.999999 -16.75,17 h -26.78125 c -7.335833,0 -13.406249,6.278483 -13.40625,13.625 v 25.531247 c 0,7.26634 6.318588,11.54032 13.40625,13.625 8.487331,2.49561 16.626237,2.94663 26.78125,0 6.750155,-1.95439 13.406253,-5.88761 13.40625,-13.625 V 92.897973 h -26.78125 v -3.40625 h 26.78125 13.406254 c 7.79246,0 10.69625,-5.435408 13.40624,-13.59375 2.79933,-8.398886 2.68022,-16.475776 0,-27.25 -1.92578,-7.757441 -5.60387,-13.59375 -13.40624,-13.59375 z m -15.0625,64.65625 c 2.779478,3e-6 5.03125,2.277417 5.03125,5.093747 -2e-6,2.82635 -2.251775,5.125 -5.03125,5.125 -2.76955,0 -5.03125,-2.29865 -5.03125,-5.125 2e-6,-2.81633 2.261697,-5.093747 5.03125,-5.093747 z"
           id="path1950" /></g></g><g
       id="layer1-5"
       transform="matrix(1.6233536,0,0,1.6233536,390.04,-1605.9214)"><rect
         style="opacity:1;fill:#494949;fill-opacity:1;stroke:none;stroke-width:1;stroke-linecap:round;stroke-linejoin:round;stroke-miterlimit:4;stroke-dasharray:none;stroke-dashoffset:0;stroke-opacity:1"
         id="rect4167"
         width="48"
         height="48"
         x="0"
         y="1004.3621"
         ry="7.9999785" /><path
         style="opacity:1;fill:#313131;fill-opacity:1;stroke:none;stroke-width:1;stroke-linecap:round;stroke-linejoin:round;stroke-miterlimit:4;stroke-dasharray:none;stroke-dashoffset:0;stroke-opacity:1"
         d="m 8,1004.3621 c -4.4319881,0 -8,3.568 -8,8 v 32 c 0,4.432 3.5680119,8 8,8 h 12 c 15.512,0 28,-16.948 28,-38 v -2 c 0,-4.432 -3.568012,-8 -8,-8 z"
         id="rect4173" /><g
         id="g4300"
         style="fill:#000000;fill-opacity:1;stroke:none"
         transform="translate(0.5,0.5)"><g
           id="g4302"
           style="fill:#000000;fill-opacity:1;stroke:none"><path
             d="m 11.986926,1016.3621 c 0.554325,0 1.025987,0.2121 1.414987,0.6362 0.398725,0.4138 0.600909,0.9155 0.598087,1.5052 v 6.8586 h -2 v -6.8914 c 0,-0.072 -0.03404,-0.1086 -0.102113,-0.1086 H 7.1021125 C 7.0340375,1018.3621 7,1018.3983 7,1018.4707 v 6.8914 H 5 v -9 z"
             style="font-style:normal;font-variant:normal;font-weight:bold;font-stretch:normal;font-size:medium;line-height:125%;font-family:Orbitron;-inkscape-font-specification:'Orbitron Bold';text-align:start;letter-spacing:0px;word-spacing:0px;writing-mode:lr-tb;text-anchor:start;fill:#000000;fill-opacity:1;stroke:none;stroke-width:1px;stroke-linecap:butt;stroke-linejoin:miter;stroke-opacity:1"
             id="path4304" /><path
             d="m 17.013073,1016.3621 h 4.973854 c 0.554325,0 1.025987,0.2121 1.414986,0.6362 0.398725,0.4138 0.598087,0.9155 0.598087,1.5052 v 4.7172 c 0,0.5897 -0.199362,1.0966 -0.598087,1.5207 -0.388999,0.4138 -0.860661,0.6207 -1.414986,0.6207 h -4.973854 c -0.554325,0 -1.030849,-0.2069 -1.429574,-0.6207 C 15.1945,1024.3173 15,1023.8104 15,1023.2207 v -4.7172 c 0,-0.5897 0.1945,-1.0914 0.583499,-1.5052 0.398725,-0.4241 0.875249,-0.6362 1.429574,-0.6362 z m 4.884815,2 h -4.795776 c -0.06808,0 -0.102112,0.036 -0.102112,0.1086 v 4.7828 c 0,0.072 0.03404,0.1086 0.102112,0.1086 h 4.795776 c 0.06807,0 0.102112,-0.036 0.102112,-0.1086 v -4.7828 c 0,-0.072 -0.03404,-0.1086 -0.102112,-0.1086 z"
             style="font-style:normal;font-variant:normal;font-weight:bold;font-stretch:normal;font-size:medium;line-height:125%;font-family:Orbitron;-inkscape-font-specification:'Orbitron Bold';text-align:start;letter-spacing:0px;word-spacing:0px;writing-mode:lr-tb;text-anchor:start;fill:#000000;fill-opacity:1;stroke:none;stroke-width:1px;stroke-linecap:butt;stroke-linejoin:miter;stroke-opacity:1"
             id="path4306" /></g><g
           id="g4308"
           style="fill:#000000;fill-opacity:1;stroke:none"><path
             d="m 12,1036.9177 4.768114,-8.5556 H 19 l -6,11 h -2 l -6,-11 h 2.2318854 z"
             style="font-style:normal;font-variant:normal;font-weight:bold;font-stretch:normal;font-size:medium;line-height:125%;font-family:Orbitron;-inkscape-font-specification:'Orbitron Bold';text-align:start;letter-spacing:0px;word-spacing:0px;writing-mode:lr-tb;text-anchor:start;fill:#000000;fill-opacity:1;stroke:none;stroke-width:1px;stroke-linecap:butt;stroke-linejoin:miter;stroke-opacity:1"
             id="path4310" /><path
             d="m 29,1036.3621 v -8 h 2 v 11 h -2 l -7,-8 v 8 h -2 v -11 h 2 z"
             style="font-style:normal;font-variant:normal;font-weight:bold;font-stretch:normal;font-size:medium;line-height:125%;font-family:Orbitron;-inkscape-font-specification:'Orbitron Bold';text-align:start;letter-spacing:0px;word-spacing:0px;writing-mode:lr-tb;text-anchor:start;fill:#000000;fill-opacity:1;stroke:none;stroke-width:1px;stroke-linecap:butt;stroke-linejoin:miter;stroke-opacity:1"
             id="path4312" /><path
             d="m 43,1030.3621 h -8.897887 c -0.06808,0 -0.102113,0.036 -0.102113,0.1069 v 6.7862 c 0,0.071 0.03404,0.1069 0.102113,0.1069 H 43 v 2 h -8.972339 c -0.56405,0 -1.045437,-0.2037 -1.444162,-0.6111 C 32.1945,1038.3334 32,1037.8292 32,1037.2385 v -6.7528 c 0,-0.5907 0.1945,-1.0898 0.583499,-1.4972 0.398725,-0.4176 0.880112,-0.6264 1.444162,-0.6264 H 43 Z"
             style="font-style:normal;font-variant:normal;font-weight:bold;font-stretch:normal;font-size:medium;line-height:125%;font-family:Orbitron;-inkscape-font-specification:'Orbitron Bold';text-align:start;letter-spacing:0px;word-spacing:0px;writing-mode:lr-tb;text-anchor:start;fill:#000000;fill-opacity:1;stroke:none;stroke-width:1px;stroke-linecap:butt;stroke-linejoin:miter;stroke-opacity:1"
             id="path4314" /></g></g><g
         id="g4291"
         style="stroke:none"><g
           id="g4282"
           style="stroke:none"><path
             id="path4143"
             style="font-style:normal;font-variant:normal;font-weight:bold;font-stretch:normal;font-size:medium;line-height:125%;font-family:Orbitron;-inkscape-font-specification:'Orbitron Bold';text-align:start;letter-spacing:0px;word-spacing:0px;writing-mode:lr-tb;text-anchor:start;fill:#008000;fill-opacity:1;stroke:none;stroke-width:1px;stroke-linecap:butt;stroke-linejoin:miter;stroke-opacity:1"
             d="m 11.986926,1016.3621 c 0.554325,0 1.025987,0.2121 1.414987,0.6362 0.398725,0.4138 0.600909,0.9155 0.598087,1.5052 v 6.8586 h -2 v -6.8914 c 0,-0.072 -0.03404,-0.1086 -0.102113,-0.1086 H 7.1021125 C 7.0340375,1018.3621 7,1018.3983 7,1018.4707 v 6.8914 H 5 v -9 z" /><path
             id="path4145"
             style="font-style:normal;font-variant:normal;font-weight:bold;font-stretch:normal;font-size:medium;line-height:125%;font-family:Orbitron;-inkscape-font-specification:'Orbitron Bold';text-align:start;letter-spacing:0px;word-spacing:0px;writing-mode:lr-tb;text-anchor:start;fill:#008000;fill-opacity:1;stroke:none;stroke-width:1px;stroke-linecap:butt;stroke-linejoin:miter;stroke-opacity:1"
             d="m 17.013073,1016.3621 h 4.973854 c 0.554325,0 1.025987,0.2121 1.414986,0.6362 0.398725,0.4138 0.598087,0.9155 0.598087,1.5052 v 4.7172 c 0,0.5897 -0.199362,1.0966 -0.598087,1.5207 -0.388999,0.4138 -0.860661,0.6207 -1.414986,0.6207 h -4.973854 c -0.554325,0 -1.030849,-0.2069 -1.429574,-0.6207 C 15.1945,1024.3173 15,1023.8104 15,1023.2207 v -4.7172 c 0,-0.5897 0.1945,-1.0914 0.583499,-1.5052 0.398725,-0.4241 0.875249,-0.6362 1.429574,-0.6362 z m 4.884815,2 h -4.795776 c -0.06808,0 -0.102112,0.036 -0.102112,0.1086 v 4.7828 c 0,0.072 0.03404,0.1086 0.102112,0.1086 h 4.795776 c 0.06807,0 0.102112,-0.036 0.102112,-0.1086 v -4.7828 c 0,-0.072 -0.03404,-0.1086 -0.102112,-0.1086 z" /></g><g
           id="g4286"
           style="stroke:none"><path
             id="path4147"
             style="font-style:normal;font-variant:normal;font-weight:bold;font-stretch:normal;font-size:medium;line-height:125%;font-family:Orbitron;-inkscape-font-specification:'Orbitron Bold';text-align:start;letter-spacing:0px;word-spacing:0px;writing-mode:lr-tb;text-anchor:start;fill:#ffff00;fill-opacity:1;stroke:none;stroke-width:1px;stroke-linecap:butt;stroke-linejoin:miter;stroke-opacity:1"
             d="m 12,1036.9177 4.768114,-8.5556 H 19 l -6,11 h -2 l -6,-11 h 2.2318854 z" /><path
             id="path4149"
             style="font-style:normal;font-variant:normal;font-weight:bold;font-stretch:normal;font-size:medium;line-height:125%;font-family:Orbitron;-inkscape-font-specification:'Orbitron Bold';text-align:start;letter-spacing:0px;word-spacing:0px;writing-mode:lr-tb;text-anchor:start;fill:#ffff00;fill-opacity:1;stroke:none;stroke-width:1px;stroke-linecap:butt;stroke-linejoin:miter;stroke-opacity:1"
             d="m 29,1036.3621 v -8 h 2 v 11 h -2 l -7,-8 v 8 h -2 v -11 h 2 z" /><path
             id="path4151"
             style="font-style:normal;font-variant:normal;font-weight:bold;font-stretch:normal;font-size:medium;line-height:125%;font-family:Orbitron;-inkscape-font-specification:'Orbitron Bold';text-align:start;letter-spacing:0px;word-spacing:0px;writing-mode:lr-tb;text-anchor:start;fill:#ffff00;fill-opacity:1;stroke:none;stroke-width:1px;stroke-linecap:butt;stroke-linejoin:miter;stroke-opacity:1"
             d="m 43,1030.3621 h -8.897887 c -0.06808,0 -0.102113,0.036 -0.102113,0.1069 v 6.7862 c 0,0.071 0.03404,0.1069 0.102113,0.1069 H 43 v 2 h -8.972339 c -0.56405,0 -1.045437,-0.2037 -1.444162,-0.6111 C 32.1945,1038.3334 32,1037.8292 32,1037.2385 v -6.7528 c 0,-0.5907 0.1945,-1.0898 0.583499,-1.4972 0.398725,-0.4176 0.880112,-0.6264 1.444162,-0.6264 H 43 Z" /></g></g></g><g
       id="Container"
       transform="matrix(1.3107114,0,0,1.3107114,47.543413,101.1468)"><path
         class="cls-1"
         d="m 42,22 c -0.21,0 1,0.3 -18,-5 L 6.27,22 A 1.0358089,1.0358089 0 0 1 5.73,20 l 18,-5 c 0.4,-0.12 -1,-0.43 18.54,5 A 1.0090714,1.0090714 0 0 1 42,22 Z"
         id="path1-7" /><path
         class="cls-1"
         d="m 24,17 a 4,4 0 0 1 -4,-4 1,1 0 0 1 2,0 2,2 0 1 0 2.76,-1.85 A 2.91,2.91 0 0 1 23,8.42 V 5 a 1,1 0 0 1 2,0 c 0,3.69 -0.14,4 0.53,4.3 A 4,4 0 0 1 24,17 Z"
         id="path2" /><rect
         class="cls-2"
         x="1"
         y="25"
         width="46"
         height="22"
         id="rect2-8" /><path
         class="cls-3"
         d="M 47,25 V 45 H 6 A 3,3 0 0 1 3,42 V 25 Z"
         id="path3" /><path
         class="cls-4"
         d="M 21,43 V 29 a 1,1 0 0 1 2,0 v 14 a 1,1 0 0 1 -2,0 z"
         id="path4" /><path
         class="cls-4"
         d="M 25,43 V 29 a 1,1 0 0 1 2,0 v 14 a 1,1 0 0 1 -2,0 z"
         id="path5" /><path
         class="cls-4"
         d="M 29,43 V 29 a 1,1 0 0 1 2,0 v 14 a 1,1 0 0 1 -2,0 z"
         id="path6" /><path
         class="cls-4"
         d="M 17,43 V 29 a 1,1 0 0 1 2,0 v 14 a 1,1 0 0 1 -2,0 z"
         id="path7" /><path
         class="cls-4"
         d="M 5,43 V 29 a 1,1 0 0 1 2,0 v 14 a 1,1 0 0 1 -2,0 z"
         id="path8" /><path
         class="cls-4"
         d="M 9,43 V 29 a 1,1 0 0 1 2,0 v 14 a 1,1 0 0 1 -2,0 z"
         id="path9" /><path
         class="cls-4"
         d="M 13,43 V 29 a 1,1 0 0 1 2,0 v 14 a 1,1 0 0 1 -2,0 z"
         id="path10" /><path
         class="cls-4"
         d="M 33,43 V 29 a 1,1 0 0 1 2,0 v 14 a 1,1 0 0 1 -2,0 z"
         id="path11" /><path
         class="cls-4"
         d="M 37,43 V 29 a 1,1 0 0 1 2,0 v 14 a 1,1 0 0 1 -2,0 z"
         id="path12" /><path
         class="cls-4"
         d="M 41,43 V 29 a 1,1 0 0 1 2,0 v 14 a 1,1 0 0 1 -2,0 z"
         id="path13" /><path
         class="cls-5"
         d="m 8,23 v 2 H 4 C 4,23.38 3.7,21.85 5.18,21.18 A 2,2 0 0 1 8,23 Z"
         id="path14-4" /><path
         class="cls-6"
         d="m 8,23 v 1 H 7 A 2,2 0 0 1 5.18,21.18 2,2 0 0 1 8,23 Z"
         id="path15" /><path
         class="cls-5"
         d="m 40,25 h 4 v -2 a 2,2 0 0 0 -4,0 z"
         id="path16-5" /><path
         class="cls-5"
         d="M 29,1 V 3 A 2,2 0 0 1 27,5 H 21 A 2,2 0 0 1 19,3 V 1 Z"
         id="path17" /><path
         class="cls-6"
         d="M 29,1 V 3 H 23 A 2,2 0 0 1 21,1 Z"
         id="path18-0" /><path
         class="cls-6"
         d="m 44,23 v 1 H 43 A 2,2 0 0 1 41.18,21.18 2,2 0 0 1 44,23 Z"
         id="path19" /></g><g
       id="g47"
       transform="matrix(1.3107114,0,0,1.3107114,222.54329,101.1468)"><path
         class="cls-1"
         d="m 42,22 c -0.21,0 1,0.3 -18,-5 L 6.27,22 A 1.0358089,1.0358089 0 0 1 5.73,20 l 18,-5 c 0.4,-0.12 -1,-0.43 18.54,5 A 1.0090714,1.0090714 0 0 1 42,22 Z"
         id="path21" /><path
         class="cls-1"
         d="m 24,17 a 4,4 0 0 1 -4,-4 1,1 0 0 1 2,0 2,2 0 1 0 2.76,-1.85 A 2.91,2.91 0 0 1 23,8.42 V 5 a 1,1 0 0 1 2,0 c 0,3.69 -0.14,4 0.53,4.3 A 4,4 0 0 1 24,17 Z"
         id="path23" /><rect
         class="cls-2"
         x="1"
         y="25"
         width="46"
         height="22"
         id="rect23" /><path
         class="cls-3"
         d="M 47,25 V 45 H 6 A 3,3 0 0 1 3,42 V 25 Z"
         id="path25" /><path
         class="cls-4"
         d="M 21,43 V 29 a 1,1 0 0 1 2,0 v 14 a 1,1 0 0 1 -2,0 z"
         id="path27" /><path
         class="cls-4"
         d="M 25,43 V 29 a 1,1 0 0 1 2,0 v 14 a 1,1 0 0 1 -2,0 z"
         id="path29" /><path
         class="cls-4"
         d="M 29,43 V 29 a 1,1 0 0 1 2,0 v 14 a 1,1 0 0 1 -2,0 z"
         id="path31" /><path
         class="cls-4"
         d="M 17,43 V 29 a 1,1 0 0 1 2,0 v 14 a 1,1 0 0 1 -2,0 z"
         id="path33" /><path
         class="cls-4"
         d="M 5,43 V 29 a 1,1 0 0 1 2,0 v 14 a 1,1 0 0 1 -2,0 z"
         id="path35" /><path
         class="cls-4"
         d="M 9,43 V 29 a 1,1 0 0 1 2,0 v 14 a 1,1 0 0 1 -2,0 z"
         id="path37" /><path
         class="cls-4"
         d="M 13,43 V 29 a 1,1 0 0 1 2,0 v 14 a 1,1 0 0 1 -2,0 z"
         id="path38" /><path
         class="cls-4"
         d="M 33,43 V 29 a 1,1 0 0 1 2,0 v 14 a 1,1 0 0 1 -2,0 z"
         id="path39" /><path
         class="cls-4"
         d="M 37,43 V 29 a 1,1 0 0 1 2,0 v 14 a 1,1 0 0 1 -2,0 z"
         id="path40" /><path
         class="cls-4"
         d="M 41,43 V 29 a 1,1 0 0 1 2,0 v 14 a 1,1 0 0 1 -2,0 z"
         id="path41" /><path
         class="cls-5"
         d="m 8,23 v 2 H 4 C 4,23.38 3.7,21.85 5.18,21.18 A 2,2 0 0 1 8,23 Z"
         id="path42" /><path
         class="cls-6"
         d="m 8,23 v 1 H 7 A 2,2 0 0 1 5.18,21.18 2,2 0 0 1 8,23 Z"
         id="path43" /><path
         class="cls-5"
         d="m 40,25 h 4 v -2 a 2,2 0 0 0 -4,0 z"
         id="path44" /><path
         class="cls-5"
         d="M 29,1 V 3 A 2,2 0 0 1 27,5 H 21 A 2,2 0 0 1 19,3 V 1 Z"
         id="path45" /><path
         class="cls-6"
         d="M 29,1 V 3 H 23 A 2,2 0 0 1 21,1 Z"
         id="path46" /><path
         class="cls-6"
         d="m 44,23 v 1 H 43 A 2,2 0 0 1 41.18,21.18 2,2 0 0 1 44,23 Z"
         id="path47" /></g><g
       id="g66"
       transform="matrix(1.3107114,0,0,1.3107114,397.54329,101.1468)"><path
         class="cls-1"
         d="m 42,22 c -0.21,0 1,0.3 -18,-5 L 6.27,22 A 1.0358089,1.0358089 0 0 1 5.73,20 l 18,-5 c 0.4,-0.12 -1,-0.43 18.54,5 A 1.0090714,1.0090714 0 0 1 42,22 Z"
         id="path48" /><path
         class="cls-1"
         d="m 24,17 a 4,4 0 0 1 -4,-4 1,1 0 0 1 2,0 2,2 0 1 0 2.76,-1.85 A 2.91,2.91 0 0 1 23,8.42 V 5 a 1,1 0 0 1 2,0 c 0,3.69 -0.14,4 0.53,4.3 A 4,4 0 0 1 24,17 Z"
         id="path49" /><rect
         class="cls-2"
         x="1"
         y="25"
         width="46"
         height="22"
         id="rect49" /><path
         class="cls-3"
         d="M 47,25 V 45 H 6 A 3,3 0 0 1 3,42 V 25 Z"
         id="path50" /><path
         class="cls-4"
         d="M 21,43 V 29 a 1,1 0 0 1 2,0 v 14 a 1,1 0 0 1 -2,0 z"
         id="path51" /><path
         class="cls-4"
         d="M 25,43 V 29 a 1,1 0 0 1 2,0 v 14 a 1,1 0 0 1 -2,0 z"
         id="path52" /><path
         class="cls-4"
         d="M 29,43 V 29 a 1,1 0 0 1 2,0 v 14 a 1,1 0 0 1 -2,0 z"
         id="path53" /><path
         class="cls-4"
         d="M 17,43 V 29 a 1,1 0 0 1 2,0 v 14 a 1,1 0 0 1 -2,0 z"
         id="path54" /><path
         class="cls-4"
         d="M 5,43 V 29 a 1,1 0 0 1 2,0 v 14 a 1,1 0 0 1 -2,0 z"
         id="path55" /><path
         class="cls-4"
         d="M 9,43 V 29 a 1,1 0 0 1 2,0 v 14 a 1,1 0 0 1 -2,0 z"
         id="path56" /><path
         class="cls-4"
         d="M 13,43 V 29 a 1,1 0 0 1 2,0 v 14 a 1,1 0 0 1 -2,0 z"
         id="path57" /><path
         class="cls-4"
         d="M 33,43 V 29 a 1,1 0 0 1 2,0 v 14 a 1,1 0 0 1 -2,0 z"
         id="path58" /><path
         class="cls-4"
         d="M 37,43 V 29 a 1,1 0 0 1 2,0 v 14 a 1,1 0 0 1 -2,0 z"
         id="path59" /><path
         class="cls-4"
         d="M 41,43 V 29 a 1,1 0 0 1 2,0 v 14 a 1,1 0 0 1 -2,0 z"
         id="path60" /><path
         class="cls-5"
         d="m 8,23 v 2 H 4 C 4,23.38 3.7,21.85 5.18,21.18 A 2,2 0 0 1 8,23 Z"
         id="path61" /><path
         class="cls-6"
         d="m 8,23 v 1 H 7 A 2,2 0 0 1 5.18,21.18 2,2 0 0 1 8,23 Z"
         id="path62" /><path
         class="cls-5"
         d="m 40,25 h 4 v -2 a 2,2 0 0 0 -4,0 z"
         id="path63" /><path
         class="cls-5"
         d="M 29,1 V 3 A 2,2 0 0 1 27,5 H 21 A 2,2 0 0 1 19,3 V 1 Z"
         id="path64" /><path
         class="cls-6"
         d="M 29,1 V 3 H 23 A 2,2 0 0 1 21,1 Z"
         id="path65" /><path
         class="cls-6"
         d="m 44,23 v 1 H 43 A 2,2 0 0 1 41.18,21.18 2,2 0 0 1 44,23 Z"
         id="path66" /></g></g></svg>
